<?xml version="1.0" standalone="no"?><!DOCTYPE svg PUBLIC "-//W3C//DTD SVG 1.1//EN" "http://www.w3.org/Graphics/SVG/1.1/DTD/svg11.dtd"><svg t="1636200904170" class="icon" viewBox="0 0 1024 1024" version="1.1" xmlns="http://www.w3.org/2000/svg" p-id="3334" xmlns:xlink="http://www.w3.org/1999/xlink" width="200" height="200"><defs><style type="text/css"></style></defs><path d="M744.853333 896.298667c-22.272 5.973333-35.413333 0.789333-41.642666-7.722667-59.285333-81.088-243.84-514.986667-282.346667-557.290667-36.629333-40.256-92.736-23.552-168.32 50.133334a9.92 9.92 0 0 1-14.826667-1.066667l-73.770666-96.149333a5.312 5.312 0 0 1 0.682666-7.189334c65.877333-58.688 148.373333-104.277333 242.624-129.536 59.946667-16.042667 119.893333-22.613333 177.813334-20.672 66.474667 2.24 116.330667 22.293333 155.050666 54.656 3.477333 2.922667 7.552 12.224-2.410666 14.890667-26.581333 7.125333-104 13.610667-131.84 16.490667-27.946667 2.88-75.434667 7.189333-75.989334 44.181333-0.746667 48.725333 146.602667 305.472 189.397334 370.624 42.88 65.28 82.176 134.058667 102.592 171.946667 5.376 9.984 9.024 33.706667-0.64 47.253333-9.472 13.226667-44.714667 40.96-76.373334 49.450667z" p-id="3335"></path></svg>